<svg version="1.1" id="Layer_1" xmlns="http://www.w3.org/2000/svg" xmlns:xlink="http://www.w3.org/1999/xlink" x="0px" y="0px"
	 width="100%" viewBox="0 0 345 313" enable-background="new 0 0 345 313" xml:space="preserve">
<path fill="#FFFEFE" opacity="1.000000" stroke="none" 
	d="
M203.000000,314.000000 
	C135.333359,314.000000 68.166718,314.000000 1.000054,314.000000 
	C1.000036,209.666733 1.000036,105.333458 1.000018,1.000138 
	C115.999901,1.000092 230.999802,1.000092 345.999756,1.000046 
	C345.999847,105.333191 345.999847,209.666382 345.999939,313.999786 
	C298.500000,314.000000 251.000000,314.000000 203.000000,314.000000 
M260.811554,151.314713 
	C269.884979,140.475220 276.283936,128.223297 277.573212,114.094460 
	C280.093964,86.470291 268.560913,64.849525 247.030685,48.397675 
	C219.844391,27.623844 188.600342,22.604433 155.687744,27.739555 
	C135.694260,30.858997 117.442940,39.221130 102.238747,53.029602 
	C81.149918,72.182480 72.450424,95.842262 79.508423,123.751228 
	C84.588501,143.839066 97.616959,158.704468 115.220139,169.373260 
	C119.045044,171.691437 120.312698,174.281281 120.168709,178.602448 
	C119.858215,187.920792 119.999237,197.257782 120.138535,206.584396 
	C120.165253,208.373337 120.876747,211.602737 121.537491,211.672958 
	C124.009766,211.935745 126.641281,211.346878 129.108887,210.687439 
	C130.089859,210.425308 130.807144,209.154587 131.630859,208.329437 
	C138.574631,201.373749 145.410995,194.304764 152.546219,187.551468 
	C153.943848,186.228653 156.487259,185.575912 158.515320,185.547440 
	C171.610153,185.363708 184.930664,186.966583 197.758347,185.102051 
	C222.260880,181.540573 243.658707,170.791946 260.811554,151.314713 
M98.199707,254.616241 
	C96.884193,254.549622 95.235039,254.967773 94.311264,254.331970 
	C90.435913,251.664734 86.680466,252.919586 86.594696,257.608459 
	C86.339355,271.567719 86.346008,285.538635 86.706001,299.493225 
	C86.748329,301.134094 89.474983,303.812683 91.227715,304.055145 
	C94.203300,304.466766 95.166786,301.749298 95.117584,298.916809 
	C95.055283,295.330566 95.102516,291.742401 95.102516,287.692017 
	C96.419777,288.078827 97.039696,288.183899 97.593597,288.434723 
	C110.966141,294.490906 122.322258,287.576019 123.392769,272.713440 
	C124.468887,257.772980 111.695328,248.136139 98.199707,254.616241 
M71.515221,252.039902 
	C73.983170,253.554062 76.755272,253.824707 77.760017,250.884003 
	C78.302147,249.297256 77.202888,246.289658 75.827774,245.056427 
	C69.795860,239.647003 57.822792,238.939499 50.873924,243.127701 
	C44.902470,246.726791 42.407627,253.722336 44.900234,259.996002 
	C47.042599,265.388184 51.618385,267.548431 56.820412,268.816254 
	C59.887863,269.563843 63.237110,269.731445 65.959068,271.132416 
	C68.020531,272.193420 70.829643,275.082458 70.536629,276.635498 
	C70.139679,278.739410 67.388527,281.228394 65.124878,281.981049 
	C60.157406,283.632660 55.254211,282.383759 50.980389,279.207794 
	C48.596928,277.436646 46.146767,276.486786 44.105648,279.480865 
	C42.100311,282.422455 43.971024,284.547882 46.179329,286.260132 
	C52.919079,291.485931 60.577343,292.080719 68.469894,289.962097 
	C75.573166,288.055359 79.732765,282.470093 79.658760,275.812286 
	C79.584007,269.087646 76.343506,265.217896 68.642662,262.944977 
	C64.976349,261.862854 61.025135,261.494568 57.604313,259.927063 
	C55.572266,258.995941 52.788090,256.050720 53.088184,254.566223 
	C53.508888,252.485138 56.441875,249.490814 58.378700,249.431046 
	C62.498695,249.303925 66.669296,250.816925 71.515221,252.039902 
M160.757736,252.165680 
	C159.257095,253.114120 157.756454,254.062576 156.189041,255.053223 
	C145.943878,250.319336 138.401245,251.412628 133.051239,258.486084 
	C127.319626,266.064056 127.441902,277.629364 133.331116,284.959442 
	C138.775208,291.735504 146.305923,292.628754 156.218124,287.674194 
	C161.916977,291.671997 165.484421,290.842041 165.631348,285.232788 
	C165.879364,275.765015 165.884506,266.277924 165.499359,256.818970 
	C165.433594,255.203568 162.913895,253.688080 160.757736,252.165680 
M278.411804,254.770386 
	C269.450745,262.076233 267.064087,273.916199 272.761902,282.799164 
	C277.849060,290.730164 289.733704,293.554840 298.609375,288.831024 
	C301.287140,287.405853 304.383057,285.588959 302.469910,281.949188 
	C300.764282,278.704315 298.035370,280.865265 295.468689,281.420288 
	C292.034576,282.162903 288.194153,282.791748 284.922211,281.945679 
	C282.423248,281.299561 280.536072,278.287140 278.376770,276.327301 
	C278.683075,275.787750 278.989380,275.248169 279.295685,274.708588 
	C286.056305,274.708588 292.818268,274.792297 299.577087,274.681610 
	C304.806580,274.595978 306.425323,272.467590 305.469208,267.363739 
	C303.133942,254.897354 290.835785,248.854980 278.411804,254.770386 
M207.085434,267.641571 
	C206.992065,266.146667 206.986847,264.640076 206.790726,263.158752 
	C205.688995,254.837280 200.191193,250.633774 192.074936,252.383560 
	C189.093384,253.026367 186.362976,254.834152 184.827789,255.522903 
	C181.508484,254.576248 178.756134,252.855972 177.046310,253.584045 
	C175.535355,254.227448 174.519760,257.575958 174.442642,259.770721 
	C174.150482,268.087189 174.336624,276.420105 174.326584,284.746887 
	C174.322906,287.800018 175.426544,290.187866 178.766479,290.205322 
	C182.264297,290.223602 182.990143,287.627197 182.981171,284.656067 
	C182.964569,279.160767 182.798126,273.654266 183.086212,268.173065 
	C183.362213,262.921844 187.000153,259.783569 191.890900,260.003479 
	C196.299637,260.201691 198.301483,262.543945 198.479370,268.257812 
	C198.655472,273.914886 198.209152,279.615753 198.778351,285.222046 
	C198.961899,287.029816 201.288574,289.703857 203.007065,290.031921 
	C205.998810,290.603058 207.099594,287.942566 207.091934,285.091492 
	C207.077194,279.595856 207.090576,274.100159 207.085434,267.641571 
M265.118286,258.063416 
	C264.193665,256.386078 263.626892,253.966003 262.220581,253.288544 
	C261.258392,252.825027 258.791382,254.480087 257.611877,255.756226 
	C256.437897,257.026398 256.028046,259.004486 255.289520,260.675018 
	C253.113297,265.597565 250.940201,270.521484 248.134033,276.875610 
	C244.766617,269.329224 242.028473,263.196838 239.293747,257.062866 
	C237.963120,254.078293 236.088455,251.579758 232.474274,253.270599 
	C228.894287,254.945465 230.199570,257.980865 231.363632,260.597290 
	C235.075333,268.939972 238.730682,277.314728 242.757446,285.505157 
	C243.719040,287.461029 246.044250,290.000397 247.733063,289.993591 
	C249.435898,289.986725 251.763168,287.455597 252.714386,285.495453 
	C256.990082,276.684814 260.873535,267.683838 265.118286,258.063416 
M224.032974,278.437927 
	C224.030228,271.627136 224.314545,264.795898 223.831268,258.019379 
	C223.703796,256.232025 221.205933,254.613708 219.796539,252.917770 
	C218.332642,254.587189 215.901642,256.101166 215.603226,257.957916 
	C214.952347,262.007507 215.380890,266.231476 215.379150,270.384216 
	C215.377136,275.201599 215.323029,280.020172 215.414795,284.835876 
	C215.470932,287.781281 216.623138,290.640533 219.949081,289.885040 
	C221.600555,289.509888 223.091522,286.803711 223.896393,284.840942 
	C224.538208,283.275818 224.030457,281.239258 224.032974,278.437927 
M220.326431,239.970535 
	C217.605408,239.895660 214.862427,240.332016 215.350876,243.780975 
	C215.585419,245.437210 217.384186,247.976059 218.679352,248.108200 
	C220.435959,248.287430 223.271896,247.002609 224.051285,245.512360 
	C225.225769,243.266647 224.642273,240.511917 220.326431,239.970535 
z"/>
<path fill="#F8E641" opacity="1.000000" stroke="none" 
	d="
M260.577332,151.581757 
	C243.658707,170.791946 222.260880,181.540573 197.758347,185.102051 
	C184.930664,186.966583 171.610153,185.363708 158.515320,185.547440 
	C156.487259,185.575912 153.943848,186.228653 152.546219,187.551468 
	C145.410995,194.304764 138.574631,201.373749 131.630859,208.329437 
	C130.807144,209.154587 130.089859,210.425308 129.108887,210.687439 
	C126.641281,211.346878 124.009766,211.935745 121.537491,211.672958 
	C120.876747,211.602737 120.165253,208.373337 120.138535,206.584396 
	C119.999237,197.257782 119.858215,187.920792 120.168709,178.602448 
	C120.312698,174.281281 119.045044,171.691437 115.220139,169.373260 
	C97.616959,158.704468 84.588501,143.839066 79.508423,123.751228 
	C72.450424,95.842262 81.149918,72.182480 102.238747,53.029602 
	C117.442940,39.221130 135.694260,30.858997 155.687744,27.739555 
	C188.600342,22.604433 219.844391,27.623844 247.030685,48.397675 
	C268.560913,64.849525 280.093964,86.470291 277.573212,114.094460 
	C276.283936,128.223297 269.884979,140.475220 260.577332,151.581757 
M93.206375,137.194977 
	C100.539619,149.063370 110.142281,158.590805 122.569382,165.030273 
	C126.132095,166.876389 127.745483,169.295944 127.644058,173.280624 
	C127.482956,179.609512 127.569603,185.945770 127.618179,192.278412 
	C127.637589,194.808350 127.834297,197.336914 127.999832,200.946320 
	C130.043213,199.176620 131.201019,198.305954 132.203827,197.283279 
	C137.568619,191.812195 142.692123,186.081284 148.340393,180.923523 
	C150.413040,179.030884 153.690170,177.479034 156.428162,177.462387 
	C168.339462,177.389923 180.368164,179.135239 192.144562,178.015411 
	C216.461670,175.703018 237.806412,166.070297 254.271362,147.458649 
	C269.845917,129.853546 274.672852,109.542603 267.009552,87.104767 
	C260.481049,67.989700 246.639252,55.142616 229.162399,45.789562 
	C207.802750,34.358570 185.043427,31.666534 161.342438,34.684242 
	C137.550537,37.713528 116.985565,47.249695 100.862923,65.322556 
	C82.194176,86.249496 79.397835,111.795319 93.206375,137.194977 
z"/>
<path fill="#FF5F5F" opacity="1.000000" stroke="none" 
	d="
M98.526138,254.407822 
	C111.695328,248.136139 124.468887,257.772980 123.392769,272.713440 
	C122.322258,287.576019 110.966141,294.490906 97.593597,288.434723 
	C97.039696,288.183899 96.419777,288.078827 95.102516,287.692017 
	C95.102516,291.742401 95.055283,295.330566 95.117584,298.916809 
	C95.166786,301.749298 94.203300,304.466766 91.227715,304.055145 
	C89.474983,303.812683 86.748329,301.134094 86.706001,299.493225 
	C86.346008,285.538635 86.339355,271.567719 86.594696,257.608459 
	C86.680466,252.919586 90.435913,251.664734 94.311264,254.331970 
	C95.235039,254.967773 96.884193,254.549622 98.526138,254.407822 
M114.012291,277.120056 
	C116.660797,268.756073 113.639664,261.330322 107.091866,260.110168 
	C101.696617,259.104767 97.301865,261.782867 95.487312,267.181854 
	C93.581711,272.851746 95.860588,279.712036 100.441170,282.094727 
	C105.230141,284.585876 109.956375,283.065979 114.012291,277.120056 
z"/>
<path fill="#FF6161" opacity="1.000000" stroke="none" 
	d="
M71.167191,251.848785 
	C66.669296,250.816925 62.498695,249.303925 58.378700,249.431046 
	C56.441875,249.490814 53.508888,252.485138 53.088184,254.566223 
	C52.788090,256.050720 55.572266,258.995941 57.604313,259.927063 
	C61.025135,261.494568 64.976349,261.862854 68.642662,262.944977 
	C76.343506,265.217896 79.584007,269.087646 79.658760,275.812286 
	C79.732765,282.470093 75.573166,288.055359 68.469894,289.962097 
	C60.577343,292.080719 52.919079,291.485931 46.179329,286.260132 
	C43.971024,284.547882 42.100311,282.422455 44.105648,279.480865 
	C46.146767,276.486786 48.596928,277.436646 50.980389,279.207794 
	C55.254211,282.383759 60.157406,283.632660 65.124878,281.981049 
	C67.388527,281.228394 70.139679,278.739410 70.536629,276.635498 
	C70.829643,275.082458 68.020531,272.193420 65.959068,271.132416 
	C63.237110,269.731445 59.887863,269.563843 56.820412,268.816254 
	C51.618385,267.548431 47.042599,265.388184 44.900234,259.996002 
	C42.407627,253.722336 44.902470,246.726791 50.873924,243.127701 
	C57.822792,238.939499 69.795860,239.647003 75.827774,245.056427 
	C77.202888,246.289658 78.302147,249.297256 77.760017,250.884003 
	C76.755272,253.824707 73.983170,253.554062 71.167191,251.848785 
z"/>
<path fill="#FF6262" opacity="1.000000" stroke="none" 
	d="
M161.142792,252.146057 
	C162.913895,253.688080 165.433594,255.203568 165.499359,256.818970 
	C165.884506,266.277924 165.879364,275.765015 165.631348,285.232788 
	C165.484421,290.842041 161.916977,291.671997 156.218124,287.674194 
	C146.305923,292.628754 138.775208,291.735504 133.331116,284.959442 
	C127.441902,277.629364 127.319626,266.064056 133.051239,258.486084 
	C138.401245,251.412628 145.943878,250.319336 156.189041,255.053223 
	C157.756454,254.062576 159.257095,253.114120 161.142792,252.146057 
M156.749481,267.354614 
	C155.030930,259.489502 144.507111,257.171021 139.465118,263.870941 
	C136.416916,267.921417 136.246811,274.790344 139.275024,278.907013 
	C142.068268,282.704193 145.850388,283.915222 150.315369,282.656006 
	C154.802231,281.390625 157.440323,276.698578 157.279861,270.632721 
	C157.257950,269.804596 157.084717,268.980530 156.749481,267.354614 
z"/>
<path fill="#FF6363" opacity="1.000000" stroke="none" 
	d="
M278.729126,254.575989 
	C290.835785,248.854980 303.133942,254.897354 305.469208,267.363739 
	C306.425323,272.467590 304.806580,274.595978 299.577087,274.681610 
	C292.818268,274.792297 286.056305,274.708588 279.295685,274.708588 
	C278.989380,275.248169 278.683075,275.787750 278.376770,276.327301 
	C280.536072,278.287140 282.423248,281.299561 284.922211,281.945679 
	C288.194153,282.791748 292.034576,282.162903 295.468689,281.420288 
	C298.035370,280.865265 300.764282,278.704315 302.469910,281.949188 
	C304.383057,285.588959 301.287140,287.405853 298.609375,288.831024 
	C289.733704,293.554840 277.849060,290.730164 272.761902,282.799164 
	C267.064087,273.916199 269.450745,262.076233 278.729126,254.575989 
M289.909058,260.178314 
	C282.750305,259.782379 280.629822,261.058075 279.239044,266.741791 
	C284.830963,266.741791 290.370209,266.741791 295.909454,266.741791 
	C296.167786,266.253479 296.426117,265.765198 296.684448,265.276886 
	C294.684998,263.647156 292.685516,262.017395 289.909058,260.178314 
z"/>
<path fill="#FF5F5F" opacity="1.000000" stroke="none" 
	d="
M207.088867,268.123047 
	C207.090576,274.100159 207.077194,279.595856 207.091934,285.091492 
	C207.099594,287.942566 205.998810,290.603058 203.007065,290.031921 
	C201.288574,289.703857 198.961899,287.029816 198.778351,285.222046 
	C198.209152,279.615753 198.655472,273.914886 198.479370,268.257812 
	C198.301483,262.543945 196.299637,260.201691 191.890900,260.003479 
	C187.000153,259.783569 183.362213,262.921844 183.086212,268.173065 
	C182.798126,273.654266 182.964569,279.160767 182.981171,284.656067 
	C182.990143,287.627197 182.264297,290.223602 178.766479,290.205322 
	C175.426544,290.187866 174.322906,287.800018 174.326584,284.746887 
	C174.336624,276.420105 174.150482,268.087189 174.442642,259.770721 
	C174.519760,257.575958 175.535355,254.227448 177.046310,253.584045 
	C178.756134,252.855972 181.508484,254.576248 184.827789,255.522903 
	C186.362976,254.834152 189.093384,253.026367 192.074936,252.383560 
	C200.191193,250.633774 205.688995,254.837280 206.790726,263.158752 
	C206.986847,264.640076 206.992065,266.146667 207.088867,268.123047 
z"/>
<path fill="#FF6161" opacity="1.000000" stroke="none" 
	d="
M265.008362,258.407471 
	C260.873535,267.683838 256.990082,276.684814 252.714386,285.495453 
	C251.763168,287.455597 249.435898,289.986725 247.733063,289.993591 
	C246.044250,290.000397 243.719040,287.461029 242.757446,285.505157 
	C238.730682,277.314728 235.075333,268.939972 231.363632,260.597290 
	C230.199570,257.980865 228.894287,254.945465 232.474274,253.270599 
	C236.088455,251.579758 237.963120,254.078293 239.293747,257.062866 
	C242.028473,263.196838 244.766617,269.329224 248.134033,276.875610 
	C250.940201,270.521484 253.113297,265.597565 255.289520,260.675018 
	C256.028046,259.004486 256.437897,257.026398 257.611877,255.756226 
	C258.791382,254.480087 261.258392,252.825027 262.220581,253.288544 
	C263.626892,253.966003 264.193665,256.386078 265.008362,258.407471 
z"/>
<path fill="#FF5E5E" opacity="1.000000" stroke="none" 
	d="
M224.032990,278.924957 
	C224.030457,281.239258 224.538208,283.275818 223.896393,284.840942 
	C223.091522,286.803711 221.600555,289.509888 219.949081,289.885040 
	C216.623138,290.640533 215.470932,287.781281 215.414795,284.835876 
	C215.323029,280.020172 215.377136,275.201599 215.379150,270.384216 
	C215.380890,266.231476 214.952347,262.007507 215.603226,257.957916 
	C215.901642,256.101166 218.332642,254.587189 219.796539,252.917770 
	C221.205933,254.613708 223.703796,256.232025 223.831268,258.019379 
	C224.314545,264.795898 224.030228,271.627136 224.032990,278.924957 
z"/>
<path fill="#FF6767" opacity="1.000000" stroke="none" 
	d="
M220.730560,239.996033 
	C224.642273,240.511917 225.225769,243.266647 224.051285,245.512360 
	C223.271896,247.002609 220.435959,248.287430 218.679352,248.108200 
	C217.384186,247.976059 215.585419,245.437210 215.350876,243.780975 
	C214.862427,240.332016 217.605408,239.895660 220.730560,239.996033 
z"/>
<path fill="#FFFFFC" opacity="1.000000" stroke="none" 
	d="
M92.997742,136.893097 
	C79.397835,111.795319 82.194176,86.249496 100.862923,65.322556 
	C116.985565,47.249695 137.550537,37.713528 161.342438,34.684242 
	C185.043427,31.666534 207.802750,34.358570 229.162399,45.789562 
	C246.639252,55.142616 260.481049,67.989700 267.009552,87.104767 
	C274.672852,109.542603 269.845917,129.853546 254.271362,147.458649 
	C237.806412,166.070297 216.461670,175.703018 192.144562,178.015411 
	C180.368164,179.135239 168.339462,177.389923 156.428162,177.462387 
	C153.690170,177.479034 150.413040,179.030884 148.340393,180.923523 
	C142.692123,186.081284 137.568619,191.812195 132.203827,197.283279 
	C131.201019,198.305954 130.043213,199.176620 127.999832,200.946320 
	C127.834297,197.336914 127.637589,194.808350 127.618179,192.278412 
	C127.569603,185.945770 127.482956,179.609512 127.644058,173.280624 
	C127.745483,169.295944 126.132095,166.876389 122.569382,165.030273 
	C110.142281,158.590805 100.539619,149.063370 92.997742,136.893097 
M145.697357,138.778122 
	C154.912491,151.931198 170.518600,158.502029 184.618103,155.165390 
	C201.930832,151.068344 213.266098,139.097794 215.760788,122.277306 
	C216.843414,114.977654 215.538254,113.445122 207.904205,113.432030 
	C187.611206,113.397232 167.318115,113.418747 147.025055,113.424416 
	C146.028488,113.424698 145.028107,113.442978 144.036087,113.528763 
	C140.724533,113.815155 138.326355,115.385536 139.281845,118.944290 
	C141.021515,125.423714 143.262939,131.768402 145.697357,138.778122 
M191.084198,85.273880 
	C191.071381,88.138657 192.073776,87.780830 193.996552,86.443924 
	C200.316284,82.049782 201.919342,82.221893 208.281372,86.366844 
	C210.606766,87.881882 213.352814,89.795364 215.862091,89.732605 
	C219.384979,89.644501 223.569794,88.723099 226.143021,86.570221 
	C228.215820,84.836014 228.319260,80.747925 229.296448,77.704193 
	C228.774185,77.493095 228.251923,77.281998 227.729660,77.070900 
	C227.057602,77.455170 226.303391,77.743553 225.725983,78.238281 
	C218.546768,84.389366 216.031265,84.462158 208.977142,78.655670 
	C201.680191,72.649307 193.836014,75.229599 191.084198,85.273880 
M136.673599,81.571426 
	C142.112015,80.120049 147.449417,79.516983 152.203156,83.508759 
	C154.225601,85.207039 156.787949,86.908455 158.472488,84.068413 
	C159.258789,82.742729 158.198807,79.271149 156.838638,77.900620 
	C150.071594,71.081993 136.047485,71.059853 129.127869,77.844902 
	C127.733643,79.212021 126.506409,82.697205 127.267838,83.930199 
	C129.148666,86.975853 131.786209,85.202812 133.933411,83.358253 
	C134.556198,82.823250 135.277390,82.402794 136.673599,81.571426 
z"/>
<path fill="#FFF7F7" opacity="1.000000" stroke="none" 
	d="
M113.841934,277.480103 
	C109.956375,283.065979 105.230141,284.585876 100.441170,282.094727 
	C95.860588,279.712036 93.581711,272.851746 95.487312,267.181854 
	C97.301865,261.782867 101.696617,259.104767 107.091866,260.110168 
	C113.639664,261.330322 116.660797,268.756073 113.841934,277.480103 
z"/>
<path fill="#FFF8F8" opacity="1.000000" stroke="none" 
	d="
M156.865509,267.754578 
	C157.084717,268.980530 157.257950,269.804596 157.279861,270.632721 
	C157.440323,276.698578 154.802231,281.390625 150.315369,282.656006 
	C145.850388,283.915222 142.068268,282.704193 139.275024,278.907013 
	C136.246811,274.790344 136.416916,267.921417 139.465118,263.870941 
	C144.507111,257.171021 155.030930,259.489502 156.865509,267.754578 
z"/>
<path fill="#FFF5F5" opacity="1.000000" stroke="none" 
	d="
M290.297546,260.282990 
	C292.685516,262.017395 294.684998,263.647156 296.684448,265.276886 
	C296.426117,265.765198 296.167786,266.253479 295.909454,266.741791 
	C290.370209,266.741791 284.830963,266.741791 279.239044,266.741791 
	C280.629822,261.058075 282.750305,259.782379 290.297546,260.282990 
z"/>
<path fill="#F9E641" opacity="1.000000" stroke="none" 
	d="
M145.496185,138.473724 
	C143.262939,131.768402 141.021515,125.423714 139.281845,118.944290 
	C138.326355,115.385536 140.724533,113.815155 144.036087,113.528763 
	C145.028107,113.442978 146.028488,113.424698 147.025055,113.424416 
	C167.318115,113.418747 187.611206,113.397232 207.904205,113.432030 
	C215.538254,113.445122 216.843414,114.977654 215.760788,122.277306 
	C213.266098,139.097794 201.930832,151.068344 184.618103,155.165390 
	C170.518600,158.502029 154.912491,151.931198 145.496185,138.473724 
M203.279877,120.938530 
	C184.594681,120.938530 165.909485,120.938530 147.190369,120.938530 
	C147.974503,135.624084 160.856491,147.563522 175.467773,148.372299 
	C194.185715,149.408417 205.090103,135.950455 207.906113,124.413712 
	C208.708252,121.127495 206.659149,120.805946 203.279877,120.938530 
z"/>
<path fill="#F9E747" opacity="1.000000" stroke="none" 
	d="
M191.101807,84.901863 
	C193.836014,75.229599 201.680191,72.649307 208.977142,78.655670 
	C216.031265,84.462158 218.546768,84.389366 225.725983,78.238281 
	C226.303391,77.743553 227.057602,77.455170 227.729660,77.070900 
	C228.251923,77.281998 228.774185,77.493095 229.296448,77.704193 
	C228.319260,80.747925 228.215820,84.836014 226.143021,86.570221 
	C223.569794,88.723099 219.384979,89.644501 215.862091,89.732605 
	C213.352814,89.795364 210.606766,87.881882 208.281372,86.366844 
	C201.919342,82.221893 200.316284,82.049782 193.996552,86.443924 
	C192.073776,87.780830 191.071381,88.138657 191.101807,84.901863 
z"/>
<path fill="#F9E644" opacity="1.000000" stroke="none" 
	d="
M136.313538,81.750626 
	C135.277390,82.402794 134.556198,82.823250 133.933411,83.358253 
	C131.786209,85.202812 129.148666,86.975853 127.267838,83.930199 
	C126.506409,82.697205 127.733643,79.212021 129.127869,77.844902 
	C136.047485,71.059853 150.071594,71.081993 156.838638,77.900620 
	C158.198807,79.271149 159.258789,82.742729 158.472488,84.068413 
	C156.787949,86.908455 154.225601,85.207039 152.203156,83.508759 
	C147.449417,79.516983 142.112015,80.120049 136.313538,81.750626 
z"/>
<path fill="#FFFEF9" opacity="1.000000" stroke="none" 
	d="
M203.746002,120.939354 
	C206.659149,120.805946 208.708252,121.127495 207.906113,124.413712 
	C205.090103,135.950455 194.185715,149.408417 175.467773,148.372299 
	C160.856491,147.563522 147.974503,135.624084 147.190369,120.938530 
	C165.909485,120.938530 184.594681,120.938530 203.746002,120.939354 
z"/>
</svg>